<?xml version="1.0" encoding="UTF-8" standalone="no"?>
<!DOCTYPE svg PUBLIC "-//W3C//DTD SVG 1.1//EN"
 "http://www.w3.org/Graphics/SVG/1.1/DTD/svg11.dtd">
<!-- Generated by graphviz version 2.40.1 (20161225.0304)
 -->
<!-- Title: controllers_diagram Pages: 1 -->
<svg width="642pt" height="609pt"
 viewBox="0.00 0.00 642.21 609.00" xmlns="http://www.w3.org/2000/svg" xmlns:xlink="http://www.w3.org/1999/xlink">
<g id="graph0" class="graph" transform="scale(1 1) rotate(0) translate(4 605)">
<title>controllers_diagram</title>
<polygon fill="transparent" stroke="transparent" points="-4,4 -4,-605 638.207,-605 638.207,4 -4,4"/>
<!-- _diagram_info -->
<g id="node1" class="node">
<title>_diagram_info</title>
<text text-anchor="start" x="360" y="-106.6" font-family="Times,serif" font-size="13.00" fill="#000000">Controllers diagram</text>
<text text-anchor="start" x="360" y="-93.6" font-family="Times,serif" font-size="13.00" fill="#000000">Date: Dec 05 2017 &#45; 08:33</text>
<text text-anchor="start" x="360" y="-80.6" font-family="Times,serif" font-size="13.00" fill="#000000">Migration version: 20171202083326</text>
<text text-anchor="start" x="360" y="-67.6" font-family="Times,serif" font-size="13.00" fill="#000000">Generated by RailRoady 1.5.3</text>
<text text-anchor="start" x="360" y="-54.6" font-family="Times,serif" font-size="13.00" fill="#000000">http://railroady.prestonlee.com</text>
</g>
<!-- AnnotationsController -->
<g id="node2" class="node">
<title>AnnotationsController</title>
<path fill="none" stroke="#000000" d="M364,-160.5C364,-160.5 481.9863,-160.5 481.9863,-160.5 487.9863,-160.5 493.9863,-166.5 493.9863,-172.5 493.9863,-172.5 493.9863,-336.5 493.9863,-336.5 493.9863,-342.5 487.9863,-348.5 481.9863,-348.5 481.9863,-348.5 364,-348.5 364,-348.5 358,-348.5 352,-342.5 352,-336.5 352,-336.5 352,-172.5 352,-172.5 352,-166.5 358,-160.5 364,-160.5"/>
<text text-anchor="middle" x="422.9932" y="-333.3" font-family="Times,serif" font-size="14.00" fill="#000000">AnnotationsController</text>
<polyline fill="none" stroke="#000000" points="352,-326.5 493.9863,-326.5 "/>
<text text-anchor="start" x="360" y="-311.3" font-family="Times,serif" font-size="14.00" fill="#000000">new</text>
<text text-anchor="start" x="360" y="-297.3" font-family="Times,serif" font-size="14.00" fill="#000000">downvote</text>
<text text-anchor="start" x="360" y="-283.3" font-family="Times,serif" font-size="14.00" fill="#000000">index</text>
<text text-anchor="start" x="360" y="-269.3" font-family="Times,serif" font-size="14.00" fill="#000000">create</text>
<text text-anchor="start" x="360" y="-255.3" font-family="Times,serif" font-size="14.00" fill="#000000">show</text>
<text text-anchor="start" x="360" y="-241.3" font-family="Times,serif" font-size="14.00" fill="#000000">update</text>
<text text-anchor="start" x="360" y="-227.3" font-family="Times,serif" font-size="14.00" fill="#000000">upvote</text>
<polyline fill="none" stroke="#000000" points="352,-220.5 493.9863,-220.5 "/>
<polyline fill="none" stroke="#000000" points="352,-196.5 493.9863,-196.5 "/>
<text text-anchor="start" x="360" y="-181.3" font-family="Times,serif" font-size="14.00" fill="#000000">_layout</text>
<text text-anchor="start" x="360" y="-167.3" font-family="Times,serif" font-size="14.00" fill="#000000">annotation_params</text>
</g>
<!-- ApplicationController -->
<g id="node3" class="node">
<title>ApplicationController</title>
<path fill="none" stroke="#000000" d="M172,-384.5C172,-384.5 345.9316,-384.5 345.9316,-384.5 351.9316,-384.5 357.9316,-390.5 357.9316,-396.5 357.9316,-396.5 357.9316,-476.5 357.9316,-476.5 357.9316,-482.5 351.9316,-488.5 345.9316,-488.5 345.9316,-488.5 172,-488.5 172,-488.5 166,-488.5 160,-482.5 160,-476.5 160,-476.5 160,-396.5 160,-396.5 160,-390.5 166,-384.5 172,-384.5"/>
<text text-anchor="middle" x="258.9658" y="-473.3" font-family="Times,serif" font-size="14.00" fill="#000000">ApplicationController</text>
<polyline fill="none" stroke="#000000" points="160,-466.5 357.9316,-466.5 "/>
<polyline fill="none" stroke="#000000" points="160,-442.5 357.9316,-442.5 "/>
<text text-anchor="start" x="168" y="-427.3" font-family="Times,serif" font-size="14.00" fill="#000000">check_rack_mini_profiler</text>
<text text-anchor="start" x="168" y="-413.3" font-family="Times,serif" font-size="14.00" fill="#000000">configure_permitted_parameters</text>
<polyline fill="none" stroke="#000000" points="160,-406.5 357.9316,-406.5 "/>
<text text-anchor="start" x="168" y="-391.3" font-family="Times,serif" font-size="14.00" fill="#000000">_layout</text>
</g>
<!-- CaptchaController -->
<g id="node4" class="node">
<title>CaptchaController</title>
<path fill="none" stroke="#000000" d="M188,-16.5C188,-16.5 283.4141,-16.5 283.4141,-16.5 289.4141,-16.5 295.4141,-22.5 295.4141,-28.5 295.4141,-28.5 295.4141,-94.5 295.4141,-94.5 295.4141,-100.5 289.4141,-106.5 283.4141,-106.5 283.4141,-106.5 188,-106.5 188,-106.5 182,-106.5 176,-100.5 176,-94.5 176,-94.5 176,-28.5 176,-28.5 176,-22.5 182,-16.5 188,-16.5"/>
<text text-anchor="middle" x="235.707" y="-91.3" font-family="Times,serif" font-size="14.00" fill="#000000">CaptchaController</text>
<polyline fill="none" stroke="#000000" points="176,-84.5 295.4141,-84.5 "/>
<text text-anchor="start" x="184" y="-69.3" font-family="Times,serif" font-size="14.00" fill="#000000">captcha</text>
<polyline fill="none" stroke="#000000" points="176,-62.5 295.4141,-62.5 "/>
<polyline fill="none" stroke="#000000" points="176,-38.5 295.4141,-38.5 "/>
<text text-anchor="start" x="184" y="-23.3" font-family="Times,serif" font-size="14.00" fill="#000000">_layout</text>
</g>
<!-- HumanCapitalsController -->
<g id="node5" class="node">
<title>HumanCapitalsController</title>
<path fill="none" stroke="#000000" d="M172,-144.5C172,-144.5 308.6416,-144.5 308.6416,-144.5 314.6416,-144.5 320.6416,-150.5 320.6416,-156.5 320.6416,-156.5 320.6416,-334.5 320.6416,-334.5 320.6416,-340.5 314.6416,-346.5 308.6416,-346.5 308.6416,-346.5 172,-346.5 172,-346.5 166,-346.5 160,-340.5 160,-334.5 160,-334.5 160,-156.5 160,-156.5 160,-150.5 166,-144.5 172,-144.5"/>
<text text-anchor="middle" x="240.3208" y="-331.3" font-family="Times,serif" font-size="14.00" fill="#000000">HumanCapitalsController</text>
<polyline fill="none" stroke="#000000" points="160,-324.5 320.6416,-324.5 "/>
<text text-anchor="start" x="168" y="-309.3" font-family="Times,serif" font-size="14.00" fill="#000000">index</text>
<text text-anchor="start" x="168" y="-295.3" font-family="Times,serif" font-size="14.00" fill="#000000">destroy</text>
<text text-anchor="start" x="168" y="-281.3" font-family="Times,serif" font-size="14.00" fill="#000000">edit</text>
<text text-anchor="start" x="168" y="-267.3" font-family="Times,serif" font-size="14.00" fill="#000000">create</text>
<text text-anchor="start" x="168" y="-253.3" font-family="Times,serif" font-size="14.00" fill="#000000">new</text>
<text text-anchor="start" x="168" y="-239.3" font-family="Times,serif" font-size="14.00" fill="#000000">show</text>
<text text-anchor="start" x="168" y="-225.3" font-family="Times,serif" font-size="14.00" fill="#000000">update</text>
<polyline fill="none" stroke="#000000" points="160,-218.5 320.6416,-218.5 "/>
<polyline fill="none" stroke="#000000" points="160,-194.5 320.6416,-194.5 "/>
<text text-anchor="start" x="168" y="-179.3" font-family="Times,serif" font-size="14.00" fill="#000000">_layout</text>
<text text-anchor="start" x="168" y="-165.3" font-family="Times,serif" font-size="14.00" fill="#000000">human_capital_params</text>
<text text-anchor="start" x="168" y="-151.3" font-family="Times,serif" font-size="14.00" fill="#000000">set_human_capital</text>
</g>
<!-- ImagesController -->
<g id="node6" class="node">
<title>ImagesController</title>
<path fill="none" stroke="#000000" d="M396,-384.5C396,-384.5 485.9727,-384.5 485.9727,-384.5 491.9727,-384.5 497.9727,-390.5 497.9727,-396.5 497.9727,-396.5 497.9727,-574.5 497.9727,-574.5 497.9727,-580.5 491.9727,-586.5 485.9727,-586.5 485.9727,-586.5 396,-586.5 396,-586.5 390,-586.5 384,-580.5 384,-574.5 384,-574.5 384,-396.5 384,-396.5 384,-390.5 390,-384.5 396,-384.5"/>
<text text-anchor="middle" x="440.9863" y="-571.3" font-family="Times,serif" font-size="14.00" fill="#000000">ImagesController</text>
<polyline fill="none" stroke="#000000" points="384,-564.5 497.9727,-564.5 "/>
<text text-anchor="start" x="392" y="-549.3" font-family="Times,serif" font-size="14.00" fill="#000000">index</text>
<text text-anchor="start" x="392" y="-535.3" font-family="Times,serif" font-size="14.00" fill="#000000">destroy</text>
<text text-anchor="start" x="392" y="-521.3" font-family="Times,serif" font-size="14.00" fill="#000000">edit</text>
<text text-anchor="start" x="392" y="-507.3" font-family="Times,serif" font-size="14.00" fill="#000000">create</text>
<text text-anchor="start" x="392" y="-493.3" font-family="Times,serif" font-size="14.00" fill="#000000">new</text>
<text text-anchor="start" x="392" y="-479.3" font-family="Times,serif" font-size="14.00" fill="#000000">show</text>
<text text-anchor="start" x="392" y="-465.3" font-family="Times,serif" font-size="14.00" fill="#000000">update</text>
<polyline fill="none" stroke="#000000" points="384,-458.5 497.9727,-458.5 "/>
<polyline fill="none" stroke="#000000" points="384,-434.5 497.9727,-434.5 "/>
<text text-anchor="start" x="392" y="-419.3" font-family="Times,serif" font-size="14.00" fill="#000000">_layout</text>
<text text-anchor="start" x="392" y="-405.3" font-family="Times,serif" font-size="14.00" fill="#000000">image_params</text>
<text text-anchor="start" x="392" y="-391.3" font-family="Times,serif" font-size="14.00" fill="#000000">set_image</text>
</g>
<!-- PagesController -->
<g id="node7" class="node">
<title>PagesController</title>
<path fill="none" stroke="#000000" d="M540,-160.5C540,-160.5 622.207,-160.5 622.207,-160.5 628.207,-160.5 634.207,-166.5 634.207,-172.5 634.207,-172.5 634.207,-238.5 634.207,-238.5 634.207,-244.5 628.207,-250.5 622.207,-250.5 622.207,-250.5 540,-250.5 540,-250.5 534,-250.5 528,-244.5 528,-238.5 528,-238.5 528,-172.5 528,-172.5 528,-166.5 534,-160.5 540,-160.5"/>
<text text-anchor="middle" x="581.1035" y="-235.3" font-family="Times,serif" font-size="14.00" fill="#000000">PagesController</text>
<polyline fill="none" stroke="#000000" points="528,-228.5 634.207,-228.5 "/>
<text text-anchor="start" x="536" y="-213.3" font-family="Times,serif" font-size="14.00" fill="#000000">home</text>
<polyline fill="none" stroke="#000000" points="528,-206.5 634.207,-206.5 "/>
<polyline fill="none" stroke="#000000" points="528,-182.5 634.207,-182.5 "/>
<text text-anchor="start" x="536" y="-167.3" font-family="Times,serif" font-size="14.00" fill="#000000">_layout</text>
</g>
<!-- PhotosController -->
<g id="node8" class="node">
<title>PhotosController</title>
<path fill="none" stroke="#000000" d="M28,-256.5C28,-256.5 115.6689,-256.5 115.6689,-256.5 121.6689,-256.5 127.6689,-262.5 127.6689,-268.5 127.6689,-268.5 127.6689,-390.5 127.6689,-390.5 127.6689,-396.5 121.6689,-402.5 115.6689,-402.5 115.6689,-402.5 28,-402.5 28,-402.5 22,-402.5 16,-396.5 16,-390.5 16,-390.5 16,-268.5 16,-268.5 16,-262.5 22,-256.5 28,-256.5"/>
<text text-anchor="middle" x="71.8345" y="-387.3" font-family="Times,serif" font-size="14.00" fill="#000000">PhotosController</text>
<polyline fill="none" stroke="#000000" points="16,-380.5 127.6689,-380.5 "/>
<text text-anchor="start" x="24" y="-365.3" font-family="Times,serif" font-size="14.00" fill="#000000">create</text>
<text text-anchor="start" x="24" y="-351.3" font-family="Times,serif" font-size="14.00" fill="#000000">destroy</text>
<text text-anchor="start" x="24" y="-337.3" font-family="Times,serif" font-size="14.00" fill="#000000">index</text>
<text text-anchor="start" x="24" y="-323.3" font-family="Times,serif" font-size="14.00" fill="#000000">new</text>
<polyline fill="none" stroke="#000000" points="16,-316.5 127.6689,-316.5 "/>
<polyline fill="none" stroke="#000000" points="16,-292.5 127.6689,-292.5 "/>
<text text-anchor="start" x="24" y="-277.3" font-family="Times,serif" font-size="14.00" fill="#000000">_layout</text>
<text text-anchor="start" x="24" y="-263.3" font-family="Times,serif" font-size="14.00" fill="#000000">photo_params</text>
</g>
<!-- ProfilesController -->
<g id="node9" class="node">
<title>ProfilesController</title>
<path fill="none" stroke="#000000" d="M28,-496.5C28,-496.5 120.3311,-496.5 120.3311,-496.5 126.3311,-496.5 132.3311,-502.5 132.3311,-508.5 132.3311,-508.5 132.3311,-588.5 132.3311,-588.5 132.3311,-594.5 126.3311,-600.5 120.3311,-600.5 120.3311,-600.5 28,-600.5 28,-600.5 22,-600.5 16,-594.5 16,-588.5 16,-588.5 16,-508.5 16,-508.5 16,-502.5 22,-496.5 28,-496.5"/>
<text text-anchor="middle" x="74.1655" y="-585.3" font-family="Times,serif" font-size="14.00" fill="#000000">ProfilesController</text>
<polyline fill="none" stroke="#000000" points="16,-578.5 132.3311,-578.5 "/>
<text text-anchor="start" x="24" y="-563.3" font-family="Times,serif" font-size="14.00" fill="#000000">photo_cache</text>
<text text-anchor="start" x="24" y="-549.3" font-family="Times,serif" font-size="14.00" fill="#000000">show</text>
<polyline fill="none" stroke="#000000" points="16,-542.5 132.3311,-542.5 "/>
<polyline fill="none" stroke="#000000" points="16,-518.5 132.3311,-518.5 "/>
<text text-anchor="start" x="24" y="-503.3" font-family="Times,serif" font-size="14.00" fill="#000000">_layout</text>
</g>
<!-- RegistrationsController -->
<g id="node10" class="node">
<title>RegistrationsController</title>
<path fill="none" stroke="#000000" d="M12,-.5C12,-.5 135.4277,-.5 135.4277,-.5 141.4277,-.5 147.4277,-6.5 147.4277,-12.5 147.4277,-12.5 147.4277,-92.5 147.4277,-92.5 147.4277,-98.5 141.4277,-104.5 135.4277,-104.5 135.4277,-104.5 12,-104.5 12,-104.5 6,-104.5 0,-98.5 0,-92.5 0,-92.5 0,-12.5 0,-12.5 0,-6.5 6,-.5 12,-.5"/>
<text text-anchor="middle" x="73.7139" y="-89.3" font-family="Times,serif" font-size="14.00" fill="#000000">RegistrationsController</text>
<polyline fill="none" stroke="#000000" points="0,-82.5 147.4277,-82.5 "/>
<text text-anchor="start" x="8" y="-67.3" font-family="Times,serif" font-size="14.00" fill="#000000">create</text>
<text text-anchor="start" x="8" y="-53.3" font-family="Times,serif" font-size="14.00" fill="#000000">sign_up</text>
<polyline fill="none" stroke="#000000" points="0,-46.5 147.4277,-46.5 "/>
<polyline fill="none" stroke="#000000" points="0,-22.5 147.4277,-22.5 "/>
<text text-anchor="start" x="8" y="-7.3" font-family="Times,serif" font-size="14.00" fill="#000000">_layout</text>
</g>
<!-- UsersController -->
<g id="node11" class="node">
<title>UsersController</title>
<path fill="none" stroke="#000000" d="M540,-288.5C540,-288.5 621.4277,-288.5 621.4277,-288.5 627.4277,-288.5 633.4277,-294.5 633.4277,-300.5 633.4277,-300.5 633.4277,-366.5 633.4277,-366.5 633.4277,-372.5 627.4277,-378.5 621.4277,-378.5 621.4277,-378.5 540,-378.5 540,-378.5 534,-378.5 528,-372.5 528,-366.5 528,-366.5 528,-300.5 528,-300.5 528,-294.5 534,-288.5 540,-288.5"/>
<text text-anchor="middle" x="580.7139" y="-363.3" font-family="Times,serif" font-size="14.00" fill="#000000">UsersController</text>
<polyline fill="none" stroke="#000000" points="528,-356.5 633.4277,-356.5 "/>
<text text-anchor="start" x="536" y="-341.3" font-family="Times,serif" font-size="14.00" fill="#000000">show</text>
<polyline fill="none" stroke="#000000" points="528,-334.5 633.4277,-334.5 "/>
<polyline fill="none" stroke="#000000" points="528,-310.5 633.4277,-310.5 "/>
<text text-anchor="start" x="536" y="-295.3" font-family="Times,serif" font-size="14.00" fill="#000000">_layout</text>
</g>
</g>
</svg>
