<?xml version="1.0" encoding="utf-8"?>
<!-- Generator: Adobe Illustrator 21.0.2, SVG Export Plug-In . SVG Version: 6.00 Build 0)  -->
<svg version="1.1" id="Layer_1" xmlns="http://www.w3.org/2000/svg" xmlns:xlink="http://www.w3.org/1999/xlink" x="0px" y="0px"
	 viewBox="0 0 725 761" style="enable-background:new 0 0 725 761;" xml:space="preserve">
<style type="text/css">
	.st0{font-family:'Times-Roman';}
	.st1{font-size:12.9986px;}
	.st2{fill:none;stroke:#000000;}
	.st3{font-size:13.9985px;}
	.st4{fill:none;stroke:#E582D5;}
	.st5{fill:#E582D5;stroke:#E582D5;}
	.st6{fill:none;stroke:#ACA97B;}
	.st7{fill:#ACA97B;stroke:#ACA97B;}
	.st8{fill:none;stroke:#F89B8E;}
	.st9{fill:#F89B8E;stroke:#F89B8E;}
	.st10{fill:none;stroke:#07D5B0;}
	.st11{fill:#07D5B0;stroke:#07D5B0;}
</style>
<title>models_diagram</title>
<g id="node1">
	<title>_diagram_info</title>
	<text transform="matrix(1 0 0 1 11.9985 179.4224)" class="st0 st1">Models diagram</text>
	<text transform="matrix(1 0 0 1 11.9985 192.4209)" class="st0 st1">Date: Dec 05 2017 - 08:33</text>
	<text transform="matrix(1 0 0 1 11.9985 205.4194)" class="st0 st1">Migration version: 20171202083326</text>
	<text transform="matrix(1 0 0 1 11.9985 218.418)" class="st0 st1">Generated by RailRoady 1.5.3</text>
	<text transform="matrix(1 0 0 1 11.9985 231.417)" class="st0 st1">http://railroady.prestonlee.com</text>
</g>
<g id="node2">
	<title>Annotation</title>
	<path class="st2" d="M124.8,563.5h223.7c6,0,12-6,12-12v-104c0-6-6-12-12-12H124.8c-6,0-12,6-12,12v104
		C112.8,557.5,118.8,563.5,124.8,563.5"/>
	<text transform="matrix(1 0 0 1 205.1685 450.6924)" class="st0 st3">Annotation</text>
	<line class="st2" x1="112.8" y1="457.5" x2="360.5" y2="457.5"/>
	<text transform="matrix(1 0 0 1 120.812 472.6904)" class="st0 st3">updated_at :timestamp without time zone</text>
	<text transform="matrix(1 0 0 1 120.812 486.6885)" class="st0 st3">label :character varying</text>
	<text transform="matrix(1 0 0 1 120.812 500.6865)" class="st0 st3">created_at :timestamp without time zone</text>
	<text transform="matrix(1 0 0 1 120.812 514.6855)" class="st0 st3">id :bigint</text>
	<text transform="matrix(1 0 0 1 120.812 528.6836)" class="st0 st3">upvotes :integer</text>
	<text transform="matrix(1 0 0 1 120.812 542.6826)" class="st0 st3">downvotes :integer</text>
	<text transform="matrix(1 0 0 1 120.812 556.6807)" class="st0 st3">user_devises_id :bigint</text>
</g>
<g id="node4">
	<title>Photo</title>
	<path class="st2" d="M180.2,756.5h264.9c6,0,12-6,12-12v-132c0-6-6-12-12-12H180.2c-6,0-12,6-12,12v132
		C168.2,750.5,174.2,756.5,180.2,756.5"/>
	<text transform="matrix(1 0 0 1 296.3169 615.6738)" class="st0 st3">Photo</text>
	<line class="st2" x1="168.2" y1="622.5" x2="457.1" y2="622.5"/>
	<text transform="matrix(1 0 0 1 176.2021 637.6719)" class="st0 st3">user_devises_id :bigint</text>
	<text transform="matrix(1 0 0 1 176.2021 651.6699)" class="st0 st3">title :character varying</text>
	<text transform="matrix(1 0 0 1 176.2021 665.6689)" class="st0 st3">created_at :timestamp without time zone</text>
	<text transform="matrix(1 0 0 1 176.2021 679.667)" class="st0 st3">updated_at :timestamp without time zone</text>
	<text transform="matrix(1 0 0 1 176.2021 693.666)" class="st0 st3">image_file_name :character varying</text>
	<text transform="matrix(1 0 0 1 176.2021 707.6641)" class="st0 st3">image_content_type :character varying</text>
	<text transform="matrix(1 0 0 1 176.2021 721.6631)" class="st0 st3">image_file_size :integer</text>
	<text transform="matrix(1 0 0 1 176.2021 735.6611)" class="st0 st3">image_updated_at :timestamp without time zone</text>
	<text transform="matrix(1 0 0 1 176.2021 749.6592)" class="st0 st3">id :bigint</text>
</g>
<g id="edge1">
	<title>Annotation-&gt;Photo</title>
	<path class="st4" d="M267.9,572.9c2.5,5.9,5.1,12,7.7,18"/>
	<polygon class="st5" points="267.8,572.8 259.7,565.4 265.8,568.2 263.9,563.6 263.9,563.6 263.9,563.6 265.8,568.2 268,561.8 
		267.8,572.8 	"/>
	<polygon class="st5" points="275.6,591.2 283.7,598.7 277.6,595.8 279.5,600.4 279.5,600.4 279.5,600.4 277.6,595.8 275.4,602.2 
		275.6,591.2 	"/>
</g>
<g id="node3">
	<title>ApplicationRecord</title>
	<ellipse class="st2" cx="643.6" cy="201.5" rx="77.3" ry="18"/>
	<text transform="matrix(1 0 0 1 590.3604 205.7197)" class="st0 st3">ApplicationRecord</text>
</g>
<g id="node5">
	<title>UserDevise</title>
	<path class="st2" d="M241,398.5h295.2c6,0,12-6,12-12v-370c0-6-6-12-12-12H241c-6,0-12,6-12,12v370C229,392.5,235,398.5,241,398.5"
		/>
	<text transform="matrix(1 0 0 1 355.9932 19.7402)" class="st0 st3">UserDevise</text>
	<line class="st2" x1="229" y1="26.5" x2="548.3" y2="26.5"/>
	<text transform="matrix(1 0 0 1 237.0269 41.7378)" class="st0 st3">number_of_downvotes_on_tag :integer</text>
	<text transform="matrix(1 0 0 1 237.0269 55.7363)" class="st0 st3">email :character varying</text>
	<text transform="matrix(1 0 0 1 237.0269 69.7344)" class="st0 st3">encrypted_password :character varying</text>
	<text transform="matrix(1 0 0 1 237.0269 83.7329)" class="st0 st3">firstname :character varying</text>
	<text transform="matrix(1 0 0 1 237.0269 97.7314)" class="st0 st3">lastname :character varying</text>
	<text transform="matrix(1 0 0 1 237.0269 111.73)" class="st0 st3">reset_password_token :character varying</text>
	<text transform="matrix(1 0 0 1 237.0269 125.7285)" class="st0 st3">reset_password_sent_at :timestamp without time zone</text>
	<text transform="matrix(1 0 0 1 237.0269 139.7266)" class="st0 st3">remember_created_at :timestamp without time zone</text>
	<text transform="matrix(1 0 0 1 237.0269 153.7251)" class="st0 st3">sign_in_count :integer</text>
	<text transform="matrix(1 0 0 1 237.0269 167.7236)" class="st0 st3">human_capital :integer</text>
	<text transform="matrix(1 0 0 1 237.0269 181.7222)" class="st0 st3">number_of_images_uploaded :integer</text>
	<text transform="matrix(1 0 0 1 237.0269 195.7207)" class="st0 st3">number_of_images_downloaded :integer</text>
	<text transform="matrix(1 0 0 1 237.0269 209.7192)" class="st0 st3">current_sign_in_at :timestamp without time zone</text>
	<text transform="matrix(1 0 0 1 237.0269 223.7178)" class="st0 st3">last_sign_in_at :timestamp without time zone</text>
	<text transform="matrix(1 0 0 1 237.0269 237.7158)" class="st0 st3">current_sign_in_ip :character varying</text>
	<text transform="matrix(1 0 0 1 237.0269 251.7144)" class="st0 st3">last_sign_in_ip :character varying</text>
	<text transform="matrix(1 0 0 1 237.0269 265.7129)" class="st0 st3">created_at :timestamp without time zone</text>
	<text transform="matrix(1 0 0 1 237.0269 279.7114)" class="st0 st3">updated_at :timestamp without time zone</text>
	<text transform="matrix(1 0 0 1 237.0269 293.71)" class="st0 st3">number_of_labels_made :integer</text>
	<text transform="matrix(1 0 0 1 237.0269 307.7085)" class="st0 st3">gender :character varying</text>
	<text transform="matrix(1 0 0 1 237.0269 321.7065)" class="st0 st3">birthday :date</text>
	<text transform="matrix(1 0 0 1 237.0269 335.7051)" class="st0 st3">country :character varying</text>
	<text transform="matrix(1 0 0 1 237.0269 349.7036)" class="st0 st3">number_of_upvotes :integer</text>
	<text transform="matrix(1 0 0 1 237.0269 363.7021)" class="st0 st3">number_of_downvotes :integer</text>
	<text transform="matrix(1 0 0 1 237.0269 377.7007)" class="st0 st3">number_of_upvotes_on_tag :integer</text>
	<text transform="matrix(1 0 0 1 237.0269 391.6992)" class="st0 st3">id :bigint</text>
</g>
<g id="edge3">
	<title>UserDevise-&gt;Annotation</title>
	<path class="st6" d="M284.4,405.9c-3.6,7-7,13.7-10.3,20.3"/>
	<ellipse class="st6" cx="286.3" cy="402.2" rx="4" ry="4"/>
	<polygon class="st7" points="273.9,426.6 273.3,437.5 271.6,431 269.3,435.5 269.3,435.5 269.3,435.5 271.6,431 265.3,433.4 
		273.9,426.6 	"/>
</g>
<g id="edge2">
	<title>UserDevise-&gt;Photo</title>
	<path class="st8" d="M392.4,407.2c-3,51.8-9.7,106.9-22.8,156.8c-2.4,9-5.5,18.1-9.1,27.1"/>
	<ellipse class="st8" cx="392.7" cy="402.9" rx="4" ry="4"/>
	<polygon class="st9" points="360.6,591.1 360.9,602.1 358.7,595.7 356.7,600.4 356.7,600.4 356.7,600.4 358.7,595.7 352.6,598.6 
		360.6,591.1 	"/>
</g>
<g id="node6">
	<title>HumanCapital</title>
	<ellipse class="st2" cx="478.6" cy="499.5" rx="61.9" ry="18"/>
	<text transform="matrix(1 0 0 1 437.8154 503.6865)" class="st0 st3">HumanCapital</text>
</g>
<g id="edge4">
	<title>UserDevise-&gt;HumanCapital</title>
	<path class="st10" d="M450.6,406.6c8,26.6,15.2,50.4,20.3,67.2"/>
	<ellipse class="st10" cx="449.3" cy="402.4" rx="4" ry="4"/>
	<ellipse class="st11" cx="472" cy="477.7" rx="4" ry="4"/>
</g>
</svg>
