<?xml version="1.0" encoding="UTF-8" standalone="no"?>
<!DOCTYPE svg PUBLIC "-//W3C//DTD SVG 1.1//EN"
 "http://www.w3.org/Graphics/SVG/1.1/DTD/svg11.dtd">
<!-- Generated by graphviz version 2.40.1 (20161225.0304)
 -->
<!-- Title: models_diagram Pages: 1 -->
<svg width="677pt" height="225pt"
 viewBox="0.00 0.00 677.38 225.00" xmlns="http://www.w3.org/2000/svg" xmlns:xlink="http://www.w3.org/1999/xlink">
<g id="graph0" class="graph" transform="scale(1 1) rotate(0) translate(4 221)">
<title>models_diagram</title>
<polygon fill="transparent" stroke="transparent" points="-4,4 -4,-221 673.38,-221 673.38,4 -4,4"/>
<!-- _diagram_info -->
<g id="node1" class="node">
<title>_diagram_info</title>
<text text-anchor="start" x="8" y="-202.6" font-family="Times,serif" font-size="13.00" fill="#000000">Models diagram</text>
<text text-anchor="start" x="8" y="-189.6" font-family="Times,serif" font-size="13.00" fill="#000000">Date: Dec 05 2017 &#45; 08:33</text>
<text text-anchor="start" x="8" y="-176.6" font-family="Times,serif" font-size="13.00" fill="#000000">Migration version: 20171202083326</text>
<text text-anchor="start" x="8" y="-163.6" font-family="Times,serif" font-size="13.00" fill="#000000">Generated by RailRoady 1.5.3</text>
<text text-anchor="start" x="8" y="-150.6" font-family="Times,serif" font-size="13.00" fill="#000000">http://railroady.prestonlee.com</text>
</g>
<!-- Annotation -->
<g id="node2" class="node">
<title>Annotation</title>
<ellipse fill="none" stroke="#000000" cx="146.6877" cy="-90" rx="49.7964" ry="18"/>
<text text-anchor="middle" x="146.6877" y="-85.8" font-family="Times,serif" font-size="14.00" fill="#000000">Annotation</text>
</g>
<!-- Photo -->
<g id="node6" class="node">
<title>Photo</title>
<ellipse fill="none" stroke="#000000" cx="256.6877" cy="-18" rx="30.9967" ry="18"/>
<text text-anchor="middle" x="256.6877" y="-13.8" font-family="Times,serif" font-size="14.00" fill="#000000">Photo</text>
</g>
<!-- Annotation&#45;&gt;Photo -->
<g id="edge1" class="edge">
<title>Annotation&#45;&gt;Photo</title>
<path fill="none" stroke="#301b03" d="M179.4532,-68.5536C194.6154,-58.6292 212.4885,-46.9304 227.2205,-37.2877"/>
<polygon fill="#301b03" stroke="#301b03" points="179.1947,-68.7227 168.3632,-70.4341 175.0112,-71.461 170.8277,-74.1993 170.8277,-74.1993 170.8277,-74.1993 175.0112,-71.461 173.2922,-77.9645 179.1947,-68.7227 179.1947,-68.7227"/>
<polygon fill="#301b03" stroke="#301b03" points="227.568,-37.0603 238.3995,-35.3488 231.7515,-34.3219 235.935,-31.5836 235.935,-31.5836 235.935,-31.5836 231.7515,-34.3219 233.4705,-27.8185 227.568,-37.0603 227.568,-37.0603"/>
</g>
<!-- ApplicationRecord -->
<g id="node3" class="node">
<title>ApplicationRecord</title>
<ellipse fill="none" stroke="#000000" cx="423.6877" cy="-180.5" rx="77.2916" ry="18"/>
<text text-anchor="middle" x="423.6877" y="-176.3" font-family="Times,serif" font-size="14.00" fill="#000000">ApplicationRecord</text>
</g>
<!-- HumanCapital -->
<g id="node4" class="node">
<title>HumanCapital</title>
<ellipse fill="none" stroke="#000000" cx="276.6877" cy="-90" rx="61.8649" ry="18"/>
<text text-anchor="middle" x="276.6877" y="-85.8" font-family="Times,serif" font-size="14.00" fill="#000000">HumanCapital</text>
</g>
<!-- Image -->
<g id="node5" class="node">
<title>Image</title>
<ellipse fill="none" stroke="#000000" cx="551.6877" cy="-180.5" rx="32.4063" ry="18"/>
<text text-anchor="middle" x="551.6877" y="-176.3" font-family="Times,serif" font-size="14.00" fill="#000000">Image</text>
</g>
<!-- Profile -->
<g id="node7" class="node">
<title>Profile</title>
<ellipse fill="none" stroke="#000000" cx="635.6877" cy="-180.5" rx="33.8857" ry="18"/>
<text text-anchor="middle" x="635.6877" y="-176.3" font-family="Times,serif" font-size="14.00" fill="#000000">Profile</text>
</g>
<!-- UserDevise -->
<g id="node8" class="node">
<title>UserDevise</title>
<ellipse fill="none" stroke="#000000" cx="276.6877" cy="-180.5" rx="51.2242" ry="18"/>
<text text-anchor="middle" x="276.6877" y="-176.3" font-family="Times,serif" font-size="14.00" fill="#000000">UserDevise</text>
</g>
<!-- UserDevise&#45;&gt;Annotation -->
<g id="edge3" class="edge">
<title>UserDevise&#45;&gt;Annotation</title>
<path fill="none" stroke="#943605" d="M246.7771,-159.6776C226.1739,-145.3346 198.8539,-126.3156 177.9625,-111.7721"/>
<ellipse fill="none" stroke="#943605" cx="250.1635" cy="-162.035" rx="4" ry="4"/>
<polygon fill="#943605" stroke="#943605" points="177.9351,-111.753 172.299,-102.3463 173.8315,-108.8962 169.7279,-106.0395 169.7279,-106.0395 169.7279,-106.0395 173.8315,-108.8962 167.1569,-109.7327 177.9351,-111.753 177.9351,-111.753"/>
</g>
<!-- UserDevise&#45;&gt;HumanCapital -->
<g id="edge4" class="edge">
<title>UserDevise&#45;&gt;HumanCapital</title>
<path fill="none" stroke="#648a78" d="M276.6877,-153.9687C276.6877,-142.1519 276.6877,-128.2674 276.6877,-116.459"/>
<ellipse fill="none" stroke="#648a78" cx="276.6878" cy="-158.186" rx="4" ry="4"/>
<ellipse fill="#648a78" stroke="#648a78" cx="276.6878" cy="-112.2868" rx="4" ry="4"/>
</g>
<!-- UserDevise&#45;&gt;Photo -->
<g id="edge2" class="edge">
<title>UserDevise&#45;&gt;Photo</title>
<path fill="none" stroke="#2051e6" d="M306.9292,-159.1661C333.5271,-137.635 365.4526,-103.199 347.6877,-72 336.1263,-51.6955 313.5908,-38.2375 293.8394,-29.8348"/>
<ellipse fill="none" stroke="#2051e6" cx="303.463" cy="-161.8841" rx="4" ry="4"/>
<polygon fill="#2051e6" stroke="#2051e6" points="293.725,-29.7895 286.0839,-21.9241 289.0761,-27.9488 284.4272,-26.108 284.4272,-26.108 284.4272,-26.108 289.0761,-27.9488 282.7706,-30.292 293.725,-29.7895 293.725,-29.7895"/>
</g>
</g>
</svg>
